<svg width="18" height="17" viewBox="0 0 18 17" fill="none" xmlns="http://www.w3.org/2000/svg">
<path d="M14.8334 2.4615H13.1667V1.62817C13.1667 1.16817 12.7934 0.794838 12.3334 0.794838C11.8734 0.794838 11.5001 1.16817 11.5001 1.62817V2.4615H6.50008V1.62817C6.50008 1.16817 6.12675 0.794838 5.66675 0.794838C5.20675 0.794838 4.83341 1.16817 4.83341 1.62817V2.4615H3.16675C1.78675 2.46317 0.668415 3.5815 0.666748 4.9615V14.1282C0.668415 15.5082 1.78675 16.6265 3.16675 16.6282H14.8334C16.2134 16.6265 17.3317 15.5082 17.3334 14.1282V4.9615C17.3317 3.5815 16.2134 2.46317 14.8334 2.4615ZM15.6667 14.1282C15.6659 14.5882 15.2934 14.9607 14.8334 14.9615H3.16675C2.70675 14.9607 2.33425 14.5882 2.33341 14.1282V4.9615C2.33425 4.50151 2.70675 4.129 3.16675 4.12817H4.83341V4.9615C4.83341 5.4215 5.20675 5.79484 5.66675 5.79484C6.12675 5.79484 6.50008 5.4215 6.50008 4.9615V4.12817H11.5001V4.9615C11.5001 5.4215 11.8734 5.79484 12.3334 5.79484C12.7934 5.79484 13.1667 5.4215 13.1667 4.9615V4.12817H14.8334C15.2934 4.129 15.6659 4.50151 15.6667 4.9615V14.1282ZM5.66675 9.12817C5.20591 9.12651 4.83341 8.75234 4.83341 8.29151C4.83341 8.06234 4.92591 7.85401 5.07508 7.70317C5.23008 7.55984 5.43841 7.47151 5.66675 7.47151C5.89508 7.47151 6.10341 7.55984 6.25925 7.70317L6.25841 7.70234C6.29175 7.74401 6.32508 7.78567 6.35841 7.82734C6.38758 7.87067 6.41341 7.91984 6.43175 7.97317L6.43341 7.97734C6.45591 8.02067 6.47341 8.07067 6.48258 8.12401L6.48341 8.12734C6.49258 8.17651 6.49925 8.23401 6.50008 8.29317C6.50008 8.29567 6.50008 8.29984 6.50008 8.30234C6.50008 8.75817 6.13091 9.12734 5.67508 9.12734C5.67175 9.12734 5.66925 9.12734 5.66591 9.12734L5.66675 9.12817ZM9.00008 9.12817C8.77008 9.12651 8.56175 9.03484 8.40841 8.88651C8.26175 8.73234 8.17008 8.52484 8.16675 8.29567V8.29484C8.16841 8.17984 8.19258 8.07151 8.23508 7.97317L8.23258 7.97817C8.27508 7.87151 8.33425 7.78067 8.40758 7.70317C8.56258 7.55984 8.77091 7.47151 8.99925 7.47151C9.22758 7.47151 9.43591 7.55984 9.59175 7.70317L9.59091 7.70234C9.66175 7.78067 9.72091 7.87151 9.76341 7.97067L9.76591 7.97734C9.80675 8.07067 9.83091 8.17901 9.83258 8.29317C9.83091 8.35317 9.82508 8.41151 9.81425 8.46734L9.81508 8.46067C9.80508 8.51651 9.78758 8.56734 9.76341 8.61317L9.76508 8.61067C9.74675 8.66484 9.72175 8.71234 9.68925 8.75317L9.69008 8.75234C9.65675 8.80234 9.62341 8.84401 9.59008 8.88567C9.43675 9.03317 9.22841 9.12484 8.99925 9.12734L9.00008 9.12817ZM12.3334 9.12817C12.1034 9.12651 11.8951 9.03484 11.7417 8.88651C11.7051 8.84734 11.6726 8.80317 11.6434 8.75651L11.6417 8.75317C11.6101 8.71317 11.5842 8.66567 11.5676 8.61484L11.5667 8.61151C11.5442 8.56817 11.5267 8.51817 11.5167 8.46484L11.5159 8.46151C11.5067 8.41234 11.5009 8.35484 11.5001 8.29651V8.29484C11.5001 8.28901 11.5001 8.28234 11.5001 8.27567C11.5001 8.16734 11.5251 8.06567 11.5684 7.97401L11.5667 7.97817C11.6117 7.87234 11.6709 7.78151 11.7426 7.70234L11.7417 7.70317C11.8934 7.55317 12.1017 7.46151 12.3317 7.46151C12.3909 7.46151 12.4492 7.46734 12.5051 7.47984L12.4992 7.47901C12.5559 7.48901 12.6059 7.50651 12.6526 7.53067L12.6492 7.52901C12.7067 7.54901 12.7559 7.57401 12.8017 7.60567L12.7992 7.604C12.8459 7.63734 12.8867 7.66984 12.9251 7.70484L12.9242 7.70401C12.9976 7.78151 13.0567 7.87234 13.0976 7.97317L13.0992 7.97901C13.1401 8.07234 13.1642 8.18067 13.1659 8.29484V8.29567C13.1651 8.35567 13.1584 8.41317 13.1484 8.46901L13.1492 8.46234C13.1392 8.51901 13.1217 8.56901 13.0976 8.61484L13.0992 8.61234C13.0809 8.66651 13.0559 8.71401 13.0234 8.75484L13.0242 8.75401C12.9909 8.80401 12.9576 8.84567 12.9242 8.88734C12.8826 8.92067 12.8401 8.95401 12.7992 8.98734C12.7559 9.01734 12.7067 9.04234 12.6534 9.06067L12.6492 9.06234C12.6059 9.08484 12.5559 9.10234 12.5026 9.11151L12.4992 9.11234C12.4501 9.12151 12.3926 9.12734 12.3342 9.12901H12.3326L12.3334 9.12817ZM5.66675 12.4615C5.60675 12.4598 5.54925 12.454 5.49341 12.444L5.50008 12.4448C5.44341 12.4348 5.39341 12.4173 5.34675 12.3932L5.35008 12.3948C5.29258 12.3748 5.24258 12.3498 5.19758 12.3182L5.20008 12.3198C5.15841 12.2871 5.11675 12.2537 5.07508 12.2198C4.92258 12.0682 4.82758 11.8582 4.82758 11.6257C4.82758 11.1632 5.20258 10.789 5.66425 10.789C5.89675 10.789 6.10675 10.884 6.25841 11.0365C6.29175 11.0782 6.32508 11.1198 6.35841 11.1698C6.39008 11.2107 6.41508 11.2573 6.43258 11.3082L6.43341 11.3115C6.45591 11.3548 6.47341 11.4057 6.48258 11.4582L6.48341 11.4615C6.49258 11.5107 6.49925 11.5682 6.50008 11.6273V11.6282C6.50008 11.6307 6.50008 11.634 6.50008 11.6365C6.50008 12.0923 6.13091 12.4615 5.67508 12.4615C5.67175 12.4615 5.67008 12.4615 5.66675 12.4615ZM9.00008 12.4615C8.77008 12.4598 8.56175 12.3682 8.40841 12.2198C8.26175 12.0657 8.17008 11.8582 8.16675 11.629V11.6282C8.16841 11.5132 8.19258 11.4048 8.23508 11.3065L8.23258 11.3115C8.27508 11.2048 8.33425 11.114 8.40758 11.0365C8.56258 10.8932 8.77091 10.8048 8.99925 10.8048C9.22758 10.8048 9.43591 10.8932 9.59175 11.0365L9.59091 11.0357C9.66175 11.114 9.72091 11.2048 9.76341 11.304L9.76591 11.3107C9.80675 11.404 9.83091 11.5123 9.83258 11.6265C9.83091 11.6865 9.82425 11.7448 9.81425 11.8007L9.81508 11.794C9.80508 11.8498 9.78758 11.9007 9.76341 11.9465L9.76508 11.944C9.74675 11.9982 9.72175 12.0448 9.68925 12.0865L9.69008 12.0857C9.65675 12.1357 9.62341 12.1773 9.59008 12.219C9.43675 12.3665 9.22841 12.4582 8.99925 12.4607L9.00008 12.4615ZM12.3334 12.4615C12.1034 12.4598 11.8951 12.3682 11.7417 12.2198C11.5951 12.0657 11.5034 11.8582 11.5001 11.629V11.6282C11.5026 11.5673 11.5084 11.5098 11.5176 11.454L11.5167 11.4615C11.5267 11.4048 11.5451 11.3548 11.5684 11.3082L11.5667 11.3115C11.5842 11.2573 11.6101 11.2098 11.6426 11.169L11.6417 11.1698C11.6717 11.1198 11.7051 11.0757 11.7426 11.0357L11.7417 11.0365C11.8934 10.8865 12.1017 10.7948 12.3317 10.7948C12.3909 10.7948 12.4492 10.8007 12.5051 10.8132L12.4992 10.8123C12.5559 10.8223 12.6059 10.8398 12.6526 10.864L12.6492 10.8623C12.7067 10.8823 12.7559 10.9073 12.8017 10.939L12.7992 10.9373C12.8409 10.9707 12.8834 11.004 12.9242 11.0373C13.0709 11.1915 13.1617 11.399 13.1651 11.6282V11.629C13.1634 11.744 13.1392 11.8523 13.0967 11.9507L13.0992 11.9457C13.0542 12.0515 12.9951 12.1423 12.9234 12.2215L12.9242 12.2207C12.8826 12.254 12.8401 12.2873 12.7992 12.3207C12.7559 12.3507 12.7067 12.3757 12.6534 12.394L12.6492 12.3957C12.6059 12.4182 12.5559 12.4357 12.5026 12.4448L12.4992 12.4457C12.4501 12.4548 12.3926 12.4607 12.3342 12.4623H12.3326L12.3334 12.4615Z" fill="white"/>
</svg>
