<svg width="15" height="12" viewBox="0 0 15 12" fill="none" xmlns="http://www.w3.org/2000/svg">
<path d="M11.6217 5.97465C12.4207 5.97465 13.0999 6.2543 13.6592 6.8136C14.2185 7.3729 14.4981 8.05205 14.4981 8.85105C14.4981 9.65005 14.2185 10.3492 13.6592 10.9484C13.0999 11.5077 12.4007 11.7874 11.5618 11.7874C10.7228 11.7874 10.0437 11.5077 9.52433 10.9484C9.00498 10.3891 8.70536 9.63008 8.62546 8.67128C8.42571 7.03333 8.82521 5.4553 9.82396 3.9372C10.8227 2.4191 12.3408 1.3005 14.3783 0.581398L14.8577 1.48027C12.98 1.95967 11.7016 2.8985 11.0225 4.29675C10.7029 5.25555 10.9026 5.81485 11.6217 5.97465ZM3.77153 5.97465C4.57053 5.97465 5.24968 6.2543 5.80898 6.8136C6.36828 7.3729 6.64793 8.05205 6.64793 8.85105C6.64793 9.65005 6.36828 10.3492 5.80898 10.9484C5.24968 11.5077 4.55055 11.7874 3.7116 11.7874C2.87265 11.7874 2.1935 11.5077 1.67415 10.9484C1.1548 10.3891 0.855177 9.63008 0.775277 8.67128C0.575527 7.03333 0.975027 5.4553 1.97378 3.9372C2.97253 2.4191 4.49063 1.3005 6.52808 0.581398L7.00748 1.48027C5.12983 1.95967 3.85143 2.8985 3.17228 4.29675C2.85268 5.25555 3.05243 5.81485 3.77153 5.97465Z" fill="#0A1425"/>
</svg>
