<svg width="21" height="21" viewBox="0 0 21 21" fill="none" xmlns="http://www.w3.org/2000/svg">
<path d="M12.3902 20.6984V13.6684H14.7342L15.1802 10.7594H12.3902V8.87142C12.3862 8.83242 12.3842 8.78742 12.3842 8.74142C12.3842 7.93842 13.0352 7.28742 13.8382 7.28742C13.9062 7.28742 13.9722 7.29242 14.0372 7.30142L14.0292 7.30042H15.2972V4.82542C14.6282 4.71142 13.8492 4.64042 13.0562 4.62942H13.0452C12.9642 4.62242 12.8702 4.61942 12.7752 4.61942C10.8142 4.61942 9.22518 6.20842 9.22518 8.16942C9.22518 8.30142 9.23218 8.43242 9.24618 8.56042L9.24518 8.54442V10.7604H6.68918V13.6694H9.24518V20.6994C4.40618 19.9124 0.75618 15.7634 0.75618 10.7624C0.75618 5.20642 5.26018 0.701416 10.8172 0.701416C16.3742 0.701416 20.8782 5.20542 20.8782 10.7624C20.8782 15.7634 17.2282 19.9134 12.4472 20.6924L12.3892 20.7004L12.3902 20.6984Z" fill="white"/>
</svg>
