<svg width="19" height="19" viewBox="0 0 19 19" fill="none" xmlns="http://www.w3.org/2000/svg">
<path d="M15.7273 0.698486H3.72727C2.07027 0.698486 0.72727 2.04149 0.72727 3.69849V15.6985C0.72727 17.3555 2.07027 18.6985 3.72727 18.6985H15.7273C17.3843 18.6985 18.7273 17.3555 18.7273 15.6985V3.69849C18.7273 2.04149 17.3843 0.698486 15.7273 0.698486ZM15.6913 12.1725C15.6803 12.6985 15.5793 13.1975 15.4023 13.6585L15.4123 13.6285C15.0933 14.4365 14.4653 15.0645 13.6783 15.3765L13.6573 15.3835C13.2263 15.5505 12.7263 15.6515 12.2053 15.6625H12.2003C11.5603 15.6915 11.3563 15.6985 9.72627 15.6985C8.09627 15.6985 7.89227 15.6915 7.25227 15.6625C6.72627 15.6515 6.22727 15.5505 5.76627 15.3735L5.79627 15.3835C4.98827 15.0645 4.36027 14.4365 4.04827 13.6495L4.04127 13.6285C3.87427 13.1975 3.77327 12.6975 3.76227 12.1765V12.1715C3.73327 11.5315 3.72627 11.3275 3.72627 9.69749C3.72627 8.06749 3.73327 7.86349 3.76227 7.22349C3.77327 6.69749 3.87427 6.19849 4.05127 5.73749L4.04127 5.76749C4.35927 4.95949 4.98827 4.33049 5.77527 4.01949L5.79627 4.01249C6.22727 3.84549 6.72727 3.74449 7.24827 3.73349H7.25327C7.89327 3.70449 8.09727 3.69749 9.72727 3.69749C11.3573 3.69749 11.5613 3.70449 12.2013 3.73349C12.7273 3.74449 13.2263 3.84549 13.6873 4.02249L13.6573 4.01249C14.4653 4.33049 15.0943 4.95949 15.4053 5.74649L15.4123 5.76749C15.5793 6.19849 15.6803 6.69849 15.6913 7.21949V7.22449C15.7203 7.86449 15.7273 8.06849 15.7273 9.69849C15.7273 11.3285 15.7203 11.5325 15.6913 12.1725ZM14.4043 6.15949C14.1983 5.63449 13.7903 5.22749 13.2793 5.02549L13.2663 5.02049C12.9353 4.89449 12.5533 4.81849 12.1543 4.81349H12.1523C11.5193 4.78449 11.3303 4.77849 9.72827 4.77849C8.12627 4.77849 7.93627 4.78449 7.30427 4.81349C6.90327 4.81849 6.52027 4.89349 6.16727 5.02749L6.19027 5.01949C5.66527 5.22549 5.25827 5.63349 5.05627 6.14449L5.05127 6.15749C4.92527 6.48849 4.84927 6.87049 4.84427 7.26949V7.27149C4.81527 7.90449 4.80927 8.09349 4.80927 9.69549C4.80927 11.2975 4.81527 11.4875 4.84427 12.1195C4.84927 12.5205 4.92427 12.9035 5.05827 13.2565L5.05027 13.2335C5.25627 13.7585 5.66427 14.1655 6.17527 14.3675L6.18827 14.3725C6.51927 14.4985 6.90127 14.5745 7.30027 14.5795H7.30227C7.93527 14.6085 8.12427 14.6145 9.72627 14.6145C11.3283 14.6145 11.5183 14.6085 12.1503 14.5795C12.5513 14.5745 12.9343 14.4995 13.2873 14.3655L13.2643 14.3735C13.7893 14.1675 14.1963 13.7595 14.3983 13.2485L14.4033 13.2355C14.5293 12.9045 14.6053 12.5225 14.6103 12.1235V12.1215C14.6393 11.4885 14.6453 11.2995 14.6453 9.69749C14.6453 8.09549 14.6393 7.90549 14.6103 7.27249C14.6053 6.87149 14.5303 6.48949 14.3963 6.13549L14.4043 6.15849V6.15949ZM9.72727 12.7795C8.02527 12.7795 6.64627 11.4005 6.64627 9.69849C6.64627 7.99649 8.02527 6.61749 9.72727 6.61749C11.4293 6.61749 12.8083 7.99649 12.8083 9.69849C12.8083 11.4005 11.4293 12.7795 9.72727 12.7795ZM12.9303 7.21549C12.5323 7.21549 12.2103 6.89349 12.2103 6.49549C12.2103 6.09749 12.5323 5.77549 12.9303 5.77549C13.3283 5.77549 13.6503 6.09749 13.6503 6.49549C13.6503 6.89349 13.3283 7.21549 12.9303 7.21549ZM11.7273 9.69849C11.7273 10.8035 10.8323 11.6985 9.72727 11.6985C8.62227 11.6985 7.72727 10.8035 7.72727 9.69849C7.72727 8.59349 8.62227 7.69849 9.72727 7.69849C10.8323 7.69849 11.7273 8.59349 11.7273 9.69849Z" fill="white"/>
</svg>
