<svg width="20" height="26" viewBox="0 0 20 26" fill="none" xmlns="http://www.w3.org/2000/svg">
<path d="M10 25.4712C10 25.4712 10 25.4712 9.99875 25.4712C9.73 25.4712 9.48125 25.3862 9.2775 25.2412L9.28125 25.2437C8.9025 24.9787 -0.00125355 18.6462 -0.00125355 10.9249C-0.00250355 10.8624 -0.00375366 10.7887 -0.00375366 10.7149C-0.00375366 5.14244 4.445 0.607441 9.98625 0.471191H9.99875C15.5512 0.607441 20.0012 5.14119 20.0012 10.7149C20.0012 10.7887 20 10.8624 19.9987 10.9362V10.9249C19.9987 18.6462 11.095 24.9787 10.7162 25.2437C10.5162 25.3862 10.2675 25.4712 9.99875 25.4712H10ZM10 2.97119C5.8275 3.10619 2.4975 6.52119 2.4975 10.7124C2.4975 10.7874 2.49875 10.8612 2.50125 10.9362V10.9249C2.50125 16.1999 7.99875 21.0549 10.0012 22.6499C12.0037 21.0562 17.5012 16.1999 17.5012 10.9249C17.5025 10.8612 17.5037 10.7874 17.5037 10.7124C17.5037 6.51994 14.1725 3.10494 10.0137 2.97119H10.0012H10ZM10 15.3574C9.9775 15.3574 9.95 15.3587 9.9225 15.3587C7.34875 15.3587 5.2625 13.2724 5.2625 10.6987C5.2625 8.12494 7.34875 6.03869 9.9225 6.03869C12.4962 6.03869 14.5825 8.12494 14.5825 10.6987C14.5825 10.7087 14.5825 10.7199 14.5825 10.7312C14.5825 13.2712 12.5362 15.3337 10.0012 15.3574H9.99875H10ZM10 8.53869C9.97625 8.53744 9.95 8.53744 9.9225 8.53744C8.72875 8.53744 7.76125 9.50494 7.76125 10.6987C7.76125 11.8924 8.72875 12.8599 9.9225 12.8599C11.1162 12.8599 12.0837 11.8924 12.0837 10.6987C12.0837 10.6887 12.0837 10.6762 12.0837 10.6637C12.0837 9.50494 11.1562 8.56244 10.0025 8.53869H10Z" fill="#FEBF00"/>
</svg>
