<svg width="28" height="24" viewBox="0 0 28 24" fill="none" xmlns="http://www.w3.org/2000/svg">
<path d="M24 0.721191H4C1.93 0.723691 0.2525 2.40119 0.25 4.47119V19.4712C0.2525 21.5412 1.93 23.2187 4 23.2212H24C26.07 23.2187 27.7475 21.5412 27.75 19.4712V4.47119C27.7475 2.40119 26.07 0.723691 24 0.721191ZM4 3.22119H24C24.485 3.22494 24.9025 3.50619 25.1037 3.91244L25.1075 3.91994L14 11.6949L2.8925 3.91994C3.0975 3.50494 3.515 3.22494 4 3.22119ZM24 20.7212H4C3.31 20.7199 2.75125 20.1612 2.75 19.4712V6.87244L13.2838 14.2462C13.4838 14.3874 13.7325 14.4724 14 14.4724C14.2675 14.4724 14.5163 14.3874 14.72 14.2437L14.7162 14.2462L25.25 6.87244V19.4712C25.2487 20.1612 24.69 20.7199 24 20.7212Z" fill="#FEBF00"/>
</svg>
