<svg width="27" height="27" viewBox="0 0 27 27" fill="none" xmlns="http://www.w3.org/2000/svg">
<path d="M21.9625 26.5149C21.875 26.5149 21.7763 26.5099 21.6775 26.5011C17.7913 26.0674 14.2813 24.7586 11.2513 22.7761L11.3425 22.8324C8.4425 20.9636 6.0475 18.5661 4.23625 15.7586L4.18 15.6661C2.2525 12.7236 0.945001 9.20863 0.527501 5.42613L0.517501 5.31988C0.507501 5.21988 0.501251 5.10238 0.501251 4.98488C0.501251 3.15613 1.89875 1.65488 3.68375 1.48738L3.6975 1.48613C3.80125 1.47613 3.90625 1.47113 4.01125 1.47113H7.44C9.22375 1.47613 10.695 2.81113 10.9125 4.53613L10.9138 4.55363C11.09 5.65613 11.3475 6.63363 11.6875 7.57113L11.6513 7.45738L11.69 7.57988C11.795 7.89738 11.855 8.26363 11.855 8.64488C11.855 9.60738 11.4675 10.4799 10.8388 11.1136L10.0888 11.8624C11.4075 13.8861 13.085 15.5624 15.0438 16.8424L15.1088 16.8824L15.8525 16.1386C16.4888 15.5086 17.3638 15.1199 18.33 15.1199C18.7713 15.1199 19.1925 15.2011 19.5813 15.3486L19.5575 15.3411C20.3975 15.6661 21.3788 15.9199 22.3963 16.0599L22.4663 16.0674C24.1888 16.3111 25.5 17.7774 25.5 19.5486C25.5 19.5724 25.5 19.5961 25.4988 19.6199V19.6161V22.9961C25.4988 22.9986 25.4988 23.0011 25.4988 23.0024C25.4988 24.9374 23.935 26.5074 22.0013 26.5174L21.9625 26.5149ZM7.4275 3.97113H4.01125C3.70125 3.97863 3.42625 4.11738 3.2375 4.33363L3.23625 4.33488C3.09 4.50863 3.00125 4.73488 3.00125 4.98113C3.00125 5.01363 3.0025 5.04613 3.00625 5.07863V5.07488C3.39125 8.54863 4.56 11.6874 6.3325 14.3961L6.2825 14.3149C7.95375 16.9111 10.0975 19.0561 12.61 20.6786L12.6925 20.7286C15.3163 22.4511 18.45 23.6224 21.8238 24.0049L21.9213 24.0136C21.9363 24.0149 21.9538 24.0149 21.9725 24.0149C22.5363 24.0149 22.995 23.5611 23.0025 22.9986V19.5686C23.0025 19.5611 23.0025 19.5524 23.0025 19.5436C23.0025 19.0349 22.6263 18.6136 22.1375 18.5424L22.1325 18.5411C20.845 18.3661 19.6825 18.0649 18.5788 17.6436L18.6875 17.6799C18.5813 17.6374 18.4575 17.6136 18.3288 17.6136C18.0538 17.6136 17.8038 17.7249 17.6225 17.9049L16.1875 19.3399C15.9613 19.5661 15.6488 19.7061 15.3038 19.7061C15.0763 19.7061 14.8638 19.6461 14.68 19.5399L14.6863 19.5436C11.6425 17.7911 9.1825 15.3311 7.48 12.3811L7.43 12.2874C7.3275 12.1099 7.26625 11.8961 7.26625 11.6699C7.26625 11.3249 7.40625 11.0124 7.6325 10.7861L9.06875 9.34988C9.2475 9.16738 9.3575 8.91863 9.3575 8.64238C9.3575 8.53238 9.34 8.42738 9.3075 8.32863L9.31 8.33613L9.2725 8.21738C8.9225 7.26238 8.63125 6.13113 8.45 4.96363L8.43625 4.85988C8.37125 4.35613 7.94625 3.97113 7.43 3.97113H7.4275ZM20.3125 12.3686C19.7075 12.3674 19.2038 11.9374 19.0888 11.3661L19.0875 11.3586C18.7375 9.58738 17.3638 8.21363 15.6213 7.86863L15.5938 7.86363C15.0138 7.74738 14.5825 7.24238 14.5825 6.63613C14.5825 5.94613 15.1425 5.38613 15.8325 5.38613C15.9175 5.38613 16 5.39488 16.0788 5.40988L16.0713 5.40863C18.8438 5.95613 20.9938 8.10613 21.5338 10.8349L21.5413 10.8786C21.5563 10.9511 21.5638 11.0336 21.5638 11.1174C21.5638 11.8074 21.0038 12.3674 20.3138 12.3674L20.3125 12.3686ZM24.8513 12.3561C24.21 12.3549 23.6825 11.8724 23.61 11.2511V11.2449C23.1463 7.07488 19.865 3.79738 15.7338 3.34238L15.6938 3.33863C15.065 3.26613 14.5813 2.73738 14.5813 2.09488C14.5813 2.04738 14.5838 1.99988 14.5888 1.95363V1.95988C14.6688 1.33113 15.2 0.848633 15.845 0.848633C15.8888 0.848633 15.9325 0.851133 15.975 0.854883H15.97C21.305 1.44113 25.5025 5.63488 26.0913 10.9174L26.0963 10.9686C26.1013 11.0099 26.1038 11.0586 26.1038 11.1074C26.1038 11.7486 25.6213 12.2774 24.9988 12.3499H24.9925C24.9513 12.3549 24.905 12.3574 24.8575 12.3574C24.8563 12.3574 24.8538 12.3574 24.8525 12.3574L24.8513 12.3561Z" fill="#FEBF00"/>
</svg>
