<svg width="50" height="51" viewBox="0 0 50 51" fill="none" xmlns="http://www.w3.org/2000/svg">
<path d="M25 0.159485C11.3225 0.159485 0.234619 11.3384 0.234619 25.1282C0.234619 38.918 11.3225 50.0969 25 50.0969C38.6776 50.0969 49.7655 38.918 49.7655 25.1282C49.751 11.3445 38.6716 0.174219 25 0.159485ZM35.4297 25.9238C35.2583 26.2705 34.9796 26.5516 34.6356 26.7244V26.7333L20.4839 33.8673C19.6099 34.3076 18.5475 33.9503 18.1107 33.0691C17.9866 32.8186 17.9226 32.5421 17.9242 32.2622V17.9943C17.9237 17.0093 18.7153 16.2105 19.6923 16.21C19.9671 16.2099 20.2382 16.2743 20.4839 16.3981L34.6356 23.532C35.51 23.9714 35.8656 25.0422 35.4297 25.9238Z" fill="#FFC900"/>
</svg>
