<svg width="25" height="42" viewBox="0 0 25 42" fill="none" xmlns="http://www.w3.org/2000/svg">
<path fill-rule="evenodd" clip-rule="evenodd" d="M10.8878 49.7725L15.0212 39.5641L25 35.3353L20.8666 25.1269L25 14.9178L15.0212 10.6891L10.8878 0.480694L0.358887 4.94259V24.8938L0.358919 25.2869L0.358887 25.6898V45.3106L10.8878 49.7725ZM1.45915 23.7682V5.69473L10.2924 1.95142L13.9512 10.9878L1.45915 23.7682ZM14.7292 11.7837L23.5624 15.527L19.9036 24.5641H2.23715L14.7292 11.7837ZM2.23785 25.6898H19.9036L23.5624 34.7261L14.7292 38.4694L2.23785 25.6898ZM13.9512 39.2654L10.2924 48.3017L1.45915 44.5584V26.485L13.9512 39.2654Z" fill="#243054"/>
</svg>
