<svg width="19" height="19" viewBox="0 0 19 19" fill="none" xmlns="http://www.w3.org/2000/svg">
<path d="M15.5553 0.698486H3.07604C1.53874 0.698486 0.272728 1.95849 0.272728 3.48849V15.8185C0.272728 17.4385 1.53874 18.6985 3.07604 18.6985H15.4649C17.0022 18.6985 18.2682 17.4385 18.2682 15.9085V3.48849C18.3586 1.95849 17.0926 0.698486 15.5553 0.698486ZM11.3051 14.5585L11.1242 14.2885L8.68266 10.7785L5.4272 14.5585H4.61334L8.32094 10.2385L5.24634 5.82849L4.61334 4.83849H7.41665L7.5975 5.10849L9.85824 8.43849L12.2094 5.64849L12.9328 4.83849H13.7467L10.22 8.97849L13.385 13.5685L14.1084 14.5585H11.3051Z" fill="white"/>
</svg>
